HIERARCHY
ROOT Hips
{
  OFFSET 267.745 86.9975 -272.335
  CHANNELS 6 Xposition Yposition Zposition Zrotation Xrotation Yrotation
  JOINT LeftUpLeg
  {
    OFFSET 8.64259 1.95398 -2.38835
    CHANNELS 3 Zrotation Xrotation Yrotation
    JOINT LeftLeg
    {
      OFFSET 43.7702 0 0
      CHANNELS 3 Zrotation Xrotation Yrotation
      JOINT LeftFoot
      {
        OFFSET 40.6238 0 0
        CHANNELS 3 Zrotation Xrotation Yrotation
        JOINT LeftToeBase
        {
          OFFSET 12.7242 0 0
          CHANNELS 3 Zrotation Xrotation Yrotation
          End Site
          {
            OFFSET 0 0 0
          }
        }
      }
    }
  }
  JOINT RightUpLeg
  {
    OFFSET -8.2249 1.95398 -2.59336
    CHANNELS 3 Zrotation Xrotation Yrotation
    JOINT RightLeg
    {
      OFFSET 43.5653 0 0
      CHANNELS 3 Zrotation Xrotation Yrotation
      JOINT RightFoot
      {
        OFFSET 40.6238 0 0
        CHANNELS 3 Zrotation Xrotation Yrotation
        JOINT RightToeBase
        {
          OFFSET 12.7242 0 0
          CHANNELS 3 Zrotation Xrotation Yrotation
          End Site
          {
            OFFSET 0 0 0
          }
        }
      }
    }
  }
  JOINT Spine
  {
    OFFSET 0.165834 0.87714 6.61349
    CHANNELS 3 Zrotation Xrotation Yrotation
    JOINT Spine1
    {
      OFFSET 7.38963 1.71661e-005 0
      CHANNELS 3 Zrotation Xrotation Yrotation
      JOINT Spine2
      {
        OFFSET 11.9445 1.14441e-005 0
        CHANNELS 3 Zrotation Xrotation Yrotation
        JOINT Spine3
        {
          OFFSET 14.7254 4.19617e-005 0
          CHANNELS 3 Zrotation Xrotation Yrotation
          JOINT Spine4
          {
            OFFSET 10.9679 0 0
            CHANNELS 3 Zrotation Xrotation Yrotation
            JOINT RightShoulder
            {
              OFFSET 2.46616 -1.6653 3.69651
              CHANNELS 3 Zrotation Xrotation Yrotation
              JOINT RightArm
              {
                OFFSET 13.0012 0 0
                CHANNELS 3 Zrotation Xrotation Yrotation
                JOINT RightForeArm
                {
                  OFFSET 28.7848 1.52588e-005 0
                  CHANNELS 3 Zrotation Xrotation Yrotation
                  JOINT RightHand
                  {
                    OFFSET 26.5688 1.52588e-005 0
                    CHANNELS 3 Zrotation Xrotation Yrotation
                    End Site
                    {
                      OFFSET 0 0 0
                    }
                  }
                }
              }
            }
            JOINT LeftShoulder
            {
              OFFSET 2.38034 -1.29275 -3.7523
              CHANNELS 3 Zrotation Xrotation Yrotation
              JOINT LeftArm
              {
                OFFSET 16.3182 6.10352e-005 0
                CHANNELS 3 Zrotation Xrotation Yrotation
                JOINT LeftForeArm
                {
                  OFFSET 27.0901 0 0
                  CHANNELS 3 Zrotation Xrotation Yrotation
                  JOINT LeftHand
                  {
                    OFFSET 24.5451 1.52588e-005 0
                    CHANNELS 3 Zrotation Xrotation Yrotation
                    End Site
                    {
                      OFFSET 0 0 0
                    }
                  }
                }
              }
            }
            JOINT Neck
            {
              OFFSET 5.0226 -0.0266342 0
              CHANNELS 3 Zrotation Xrotation Yrotation
              JOINT Head
              {
                OFFSET 6.69364 2.86102e-005 0
                CHANNELS 3 Zrotation Xrotation Yrotation
                End Site
                {
                  OFFSET 0 0 0
                }
              }
            }
          }
        }
      }
    }
  }
}
MOTION
Frames:	10
Frame Time:	0.0416667
8.72134 88.3896 2.96961 100.066 -29.7831 94.9773 -175.056 -10.7624 87.2501 -37.4259 12.8916 3.68608 83.6181 20.5892 8.86471 48.8047 -1.72822 8.61204 175.845 29.5347 82.6724 -8.23854 -8.10161 1.17965 34.6009 15.3517 25.7983 33.149 -0.61308 -9.29795 -1.32207 9.22242 -89.9833 8.4275 -2.6308 0.186294 -3.24084 -2.62004 0.301975 -25.7964 -2.56508 -0.613528 -5.78371 -2.56506 -0.613513 103.172 -49.8651 -80.5939 26.4336 -0.760802 9.32661 5.22484 -12.4364 -3.59321 -16.4556 -1.17993 3.22543 -84.0343 -45.7879 86.9754 -22.0887 17.8434 -14.7145 23.6703 0.90996 -70.5231 0.122254 -0.206424 -9.71504 26.9292 -4.30665 -6.21612 -21.1684 -2.18235 2.60751 
18.2927 87.5513 11.4343 93.7079 -25.4793 92.4857 -176.303 -10.5487 90.8498 -40.5392 12.0637 6.86292 78.7761 10.9549 -3.50635 55.154 -1.78878 10.0418 173.798 31.1797 83.2714 -8.04956 -7.58331 1.66064 30.3491 16.8543 23.2296 40.7844 -3.15871 -8.87301 -1.59772 8.59398 -90.6853 9.67051 -3.49479 -1.08645 -1.99607 -3.5392 -0.931425 -24.5572 -3.00664 -2.08725 -4.54458 -3.00664 -2.08724 102.368 -49.7448 -81.8506 26.9953 -4.31687 5.46802 4.52734 -5.58439 -10.5972 -13.6004 -0.656006 0.430379 -84.1124 -46.7549 86.9688 -27.5886 11.1556 -15.3099 17.6759 18.2442 -45.8969 2.0974 -0.229949 -7.94113 30.065 -2.92512 -1.38944 -23.4883 -2.56466 1.91457 
28.169 87.6582 20.5089 92.5209 -24.082 92.8641 -178.299 -6.9147 94.2222 -51.3649 10.7757 7.39961 56.4172 -2.34249 -9.57654 56.9102 -3.26378 -1.16348 172.647 37.2899 85.4332 -37.144 -12.4884 4.21688 60.326 3.06896 7.98121 15.4222 3.6239 -0.665618 -1.36709 8.36056 -91.3243 10.1112 -3.32732 -2.35165 -1.55743 -3.42758 -2.20288 -24.0958 -2.46715 -3.24268 -4.08313 -2.46717 -3.24268 101.813 -48.9673 -82.7237 25.4061 -10.0554 0.970701 4.22306 -3.14532 -18.5937 -17.3168 -0.592183 -1.25796 -84.3234 -48.2322 86.8184 -30.1017 3.59513 -13.7892 8.66371 30.9116 -21.8878 1.30321 -0.214101 -8.21386 33.4348 -1.69062 1.73053 -26.9946 -2.60201 1.1369 
37.3733 86.9056 28.6617 95.1843 -28.9567 94.6652 178.195 1.46086 89.784 -74.8427 7.24431 5.6433 55.1349 -0.307626 1.4343 56.0761 -2.31062 5.84647 172.761 35.5955 89.891 -52.3005 -17.2435 2.95352 65.6332 -3.32771 0.179317 30.3026 -0.500148 2.37523 -0.567891 8.66239 -91.5628 9.51696 -1.83625 -2.96134 -2.15584 -1.96476 -2.87774 -24.6671 -0.86191 -3.37584 -4.65441 -0.861913 -3.37583 100.581 -46.8102 -84.7423 23.9754 -11.1433 -9.30895 0.0923442 -8.71187 -23.932 -19.1922 -0.63441 -1.38618 -84.187 -49.2563 87.1471 -26.0063 -2.88233 -8.79696 3.84237 32.3238 -11.3825 -2.31284 -0.092758 -8.37582 32.1865 -0.83707 3.85001 -24.819 -2.33093 -0.578535 
45.6049 87.7606 36.5843 95.3601 -29.6839 94.6389 175.799 18.96 89.566 -94.7677 4.27072 3.94932 57.3008 1.97288 0.691289 52.4636 -2.23654 4.46993 172.265 28.3078 91.5419 -54.6342 -19.5401 3.34966 69.8028 -10.1259 -8.0542 41.0915 -2.91297 5.86504 -0.0246646 8.54209 -91.694 9.76196 -0.815727 -3.29508 -1.91283 -0.959863 -3.25606 -24.4142 0.211655 -3.38785 -4.40151 0.211654 -3.38785 99.1198 -43.6098 -87.3259 22.7451 -9.95893 -17.2591 -5.55056 -12.5948 -31.1271 -18.0961 -0.514663 -1.94015 -83.2005 -49.4392 88.6751 -19.9945 -6.40609 -3.27447 3.96833 29.9165 -11.1759 -2.27191 -0.0922768 -7.39817 28.6227 -1.89888 7.16327 -24.7196 -4.30829 -1.79865 
53.7715 92.6972 44.7873 96.1694 -28.3556 90.1959 178.686 34.0517 82.3543 -98.9347 5.22373 2.99853 57.9975 2.7165 2.86685 50.3817 -2.12634 3.88537 174.278 14.285 88.1914 -44.5838 -18.9783 1.07581 71.2445 -8.66707 -4.69349 40.1141 -2.8264 -1.62024 0.284138 8.41647 -91.0115 10.0375 0.106235 -2.01657 -1.63502 0.0174193 -2.0193 -24.1588 0.707287 -1.8915 -4.14616 0.707273 -1.8915 99.4255 -41.5201 -86.9354 21.6465 -11.9074 -20.1631 -6.75658 -8.14455 -39.1857 -17.7642 -0.222856 -3.79407 -82.7721 -46.4106 89.0472 -15.6119 -7.80095 1.59 4.84848 24.3497 -14.5022 -1.05971 -0.135741 -8.31453 25.2887 -5.21845 6.74117 -25.1417 -6.51969 -5.11254 
62.243 99.556 52.2208 97.2715 -29.1134 87.1862 -177.047 41.2332 75.1552 -90.9662 4.86357 2.16392 57.8187 0.832883 -0.728592 49.3387 -2.06219 3.64301 174.618 3.72266 85.2286 -32.8194 -16.1862 -1.23817 53.4785 8.89686 11.8576 37.1229 -1.84048 -5.7728 0.679564 8.23502 -90.4245 10.4045 1.15939 -0.942891 -1.26635 1.11674 -0.993003 -23.8041 1.38914 -0.550823 -3.79145 1.38911 -0.550838 100.336 -39.9904 -85.4156 21.4537 -16.1936 -18.9642 -10.0302 -5.70251 -47.4105 -14.5588 -0.1109 -4.37989 -82.4835 -44.3788 89.3132 -11.619 -8.01362 4.57991 3.78305 19.4407 -15.3177 0.0050599 -0.166908 -8.05005 18.4938 -7.94824 5.79086 -24.5366 -7.91134 -8.604 
70.1915 104.81 59.2339 98.0416 -32.8031 88.5492 -176.108 41.7614 74.7119 -80.3894 2.41709 1.27105 55.6346 -1.81324 -4.40318 47.7239 -1.996 2.24022 174.984 1.72279 85.715 -27.2406 -15.9831 -1.04231 43.9159 13.6754 20.8284 24.6391 2.06182 -7.32243 1.05349 8.21165 -90.5339 10.4605 1.8537 -1.22463 -1.20977 1.79801 -1.30505 -23.7542 2.13603 -0.61073 -3.74153 2.13602 -0.610737 100.047 -38.4355 -86.0135 20.4408 -20.5702 -16.9969 -14.6243 -1.99518 -58.2837 -11.6579 -0.0139269 -5.34316 -81.4583 -43.7529 90.9355 -10.3546 -9.03829 8.11821 3.29687 15.4243 -16.2605 1.51735 -0.201945 -7.65766 16.1094 -7.72961 6.61942 -24.1048 -7.71235 -9.57167 
78.1324 107.772 66.5298 98.311 -35.2421 88.7917 -176.758 37.3803 74.84 -67.4431 -0.262231 0.342207 56.8162 -1.6957 -7.98992 43.1755 -1.59785 1.16217 174.356 3.56512 85.7507 -21.7063 -8.16717 0.00801341 50.8811 11.5425 20.6322 32.4647 -0.604056 -5.52534 1.171 8.24197 -90.4676 10.4007 2.11834 -1.1144 -1.2691 2.06727 -1.20659 -23.8173 2.35531 -0.425945 -3.80462 2.35532 -0.425941 99.7608 -38.3864 -86.5347 19.7014 -24.1335 -16.0648 -15.6032 2.94059 -67.9272 -11.9576 0.0399938 -5.78671 -81.5584 -41.4763 90.5885 -10.6388 -9.7925 12.2349 3.1179 12.4587 -17.3912 3.72511 -0.256428 -7.47507 16.7511 -7.06363 6.6494 -25.1161 -6.83296 -10.5425 
86.0215 107.001 73.836 96.8761 -39.211 88.495 -176.655 34.4761 76.2148 -53.6454 3.34802 -1.15132 57.3602 -1.49226 -6.46298 43.277 -1.61113 0.798158 174.879 5.80653 86.5826 -14.4303 -3.36286 0.613906 47.3049 13.7446 20.535 39.185 -2.62801 -8.52199 1.35109 8.12002 -90.4278 10.6468 2.49392 -1.07709 -1.0223 2.44409 -1.18585 -23.5762 2.70226 -0.277273 -3.56357 2.70226 -0.277276 99.7333 -39.3101 -86.5284 17.3799 -29.0954 -18.2129 -16.3975 6.64933 -74.3069 -13.4494 0.0187019 -5.50094 -81.2079 -42.3123 91.2409 -8.1615 -9.92261 15.731 3.0225 10.1904 -19.5998 5.86082 -0.279234 -6.99134 17.223 -6.0533 7.93568 -25.4523 -6.07058 -11.3084 
